<svg width="320" height="82" viewBox="0 0 320 82" fill="none" xmlns="http://www.w3.org/2000/svg">
<g filter="url(#filter0_i)">
<g opacity="0.5">
<path opacity="0.5" d="M44.8164 40.1438C47.1 40.1438 48.9513 38.2925 48.9513 36.0089C48.9513 33.7252 47.1 31.8739 44.8164 31.8739C42.5327 31.8739 40.6814 33.7252 40.6814 36.0089C40.6814 38.2925 42.5327 40.1438 44.8164 40.1438Z" fill="#15142C" fill-opacity="0.2"/>
<path opacity="0.5" d="M4.16206 40.1438C6.44573 40.1438 8.29701 38.2925 8.29701 36.0089C8.29701 33.7252 6.44573 31.8739 4.16206 31.8739C1.87838 31.8739 0.0270996 33.7252 0.0270996 36.0089C0.0270996 38.2925 1.87838 40.1438 4.16206 40.1438Z" fill="#15142C" fill-opacity="0.2"/>
<path opacity="0.5" d="M44.8164 51.8782C46.1417 51.8782 47.2161 50.8038 47.2161 49.4785C47.2161 48.1532 46.1417 47.0789 44.8164 47.0789C43.4911 47.0789 42.4167 48.1532 42.4167 49.4785C42.4167 50.8038 43.4911 51.8782 44.8164 51.8782Z" fill="#15142C" fill-opacity="0.2"/>
<path opacity="0.5" d="M4.16212 51.8782C5.48742 51.8782 6.56179 50.8038 6.56179 49.4785C6.56179 48.1532 5.48742 47.0789 4.16212 47.0789C2.83682 47.0789 1.76245 48.1532 1.76245 49.4785C1.76245 50.8038 2.83682 51.8782 4.16212 51.8782Z" fill="#15142C" fill-opacity="0.2"/>
<path opacity="0.5" d="M17.7136 67.8588C19.9972 67.8588 21.8485 66.0075 21.8485 63.7238C21.8485 61.4402 19.9972 59.5889 17.7136 59.5889C15.4299 59.5889 13.5786 61.4402 13.5786 63.7238C13.5786 66.0075 15.4299 67.8588 17.7136 67.8588Z" fill="#15142C" fill-opacity="0.2"/>
<path opacity="0.5" d="M17.7136 81.716C19.9972 81.716 21.8485 79.8647 21.8485 77.581C21.8485 75.2973 19.9972 73.446 17.7136 73.446C15.4299 73.446 13.5786 75.2973 13.5786 77.581C13.5786 79.8647 15.4299 81.716 17.7136 81.716Z" fill="#15142C" fill-opacity="0.2"/>
<path opacity="0.5" d="M58.3678 40.1438C60.6515 40.1438 62.5027 38.2925 62.5027 36.0089C62.5027 33.7252 60.6515 31.8739 58.3678 31.8739C56.0842 31.8739 54.2329 33.7252 54.2329 36.0089C54.2329 38.2925 56.0842 40.1438 58.3678 40.1438Z" fill="#15142C" fill-opacity="0.2"/>
<path opacity="0.5" d="M17.7136 40.1438C19.9972 40.1438 21.8485 38.2925 21.8485 36.0089C21.8485 33.7252 19.9972 31.8739 17.7136 31.8739C15.4299 31.8739 13.5786 33.7252 13.5786 36.0089C13.5786 38.2925 15.4299 40.1438 17.7136 40.1438Z" fill="#15142C" fill-opacity="0.2"/>
<path opacity="0.5" d="M58.3678 24.2069C60.6515 24.2069 62.5027 22.3556 62.5027 20.072C62.5027 17.7883 60.6515 15.937 58.3678 15.937C56.0842 15.937 54.2329 17.7883 54.2329 20.072C54.2329 22.3556 56.0842 24.2069 58.3678 24.2069Z" fill="#15142C" fill-opacity="0.2"/>
<path opacity="0.5" d="M31.2649 24.2069C33.5486 24.2069 35.3998 22.3556 35.3998 20.072C35.3998 17.7883 33.5486 15.937 31.2649 15.937C28.9813 15.937 27.13 17.7883 27.13 20.072C27.13 22.3556 28.9813 24.2069 31.2649 24.2069Z" fill="#15142C" fill-opacity="0.2"/>
<path opacity="0.5" d="M31.2649 67.8588C33.5486 67.8588 35.3998 66.0075 35.3998 63.7238C35.3998 61.4402 33.5486 59.5889 31.2649 59.5889C28.9813 59.5889 27.13 61.4402 27.13 63.7238C27.13 66.0075 28.9813 67.8588 31.2649 67.8588Z" fill="#15142C" fill-opacity="0.2"/>
<path opacity="0.5" d="M85.4709 67.8588C87.7545 67.8588 89.6058 66.0075 89.6058 63.7238C89.6058 61.4402 87.7545 59.5889 85.4709 59.5889C83.1872 59.5889 81.3359 61.4402 81.3359 63.7238C81.3359 66.0075 83.1872 67.8588 85.4709 67.8588Z" fill="#15142C" fill-opacity="0.2"/>
<path opacity="0.5" d="M31.2649 81.716C33.5486 81.716 35.3998 79.8647 35.3998 77.581C35.3998 75.2973 33.5486 73.446 31.2649 73.446C28.9813 73.446 27.13 75.2973 27.13 77.581C27.13 79.8647 28.9813 81.716 31.2649 81.716Z" fill="#15142C" fill-opacity="0.2"/>
<path opacity="0.5" d="M71.9194 40.1438C74.2031 40.1438 76.0544 38.2925 76.0544 36.0089C76.0544 33.7252 74.2031 31.8739 71.9194 31.8739C69.6358 31.8739 67.7845 33.7252 67.7845 36.0089C67.7845 38.2925 69.6358 40.1438 71.9194 40.1438Z" fill="#15142C" fill-opacity="0.2"/>
<path opacity="0.5" d="M58.3678 51.8782C59.6931 51.8782 60.7675 50.8038 60.7675 49.4785C60.7675 48.1532 59.6931 47.0789 58.3678 47.0789C57.0426 47.0789 55.9682 48.1532 55.9682 49.4785C55.9682 50.8038 57.0426 51.8782 58.3678 51.8782Z" fill="#15142C" fill-opacity="0.2"/>
<path opacity="0.5" d="M17.7135 51.8782C19.0388 51.8782 20.1132 50.8038 20.1132 49.4785C20.1132 48.1532 19.0388 47.0789 17.7135 47.0789C16.3882 47.0789 15.3138 48.1532 15.3138 49.4785C15.3138 50.8038 16.3882 51.8782 17.7135 51.8782Z" fill="#15142C" fill-opacity="0.2"/>
<path opacity="0.5" d="M44.8164 67.8588C47.1 67.8588 48.9513 66.0075 48.9513 63.7238C48.9513 61.4402 47.1 59.5889 44.8164 59.5889C42.5327 59.5889 40.6814 61.4402 40.6814 63.7238C40.6814 66.0075 42.5327 67.8588 44.8164 67.8588Z" fill="#15142C" fill-opacity="0.2"/>
<path opacity="0.5" d="M99.0222 67.8588C101.306 67.8588 103.157 66.0075 103.157 63.7238C103.157 61.4402 101.306 59.5889 99.0222 59.5889C96.7385 59.5889 94.8872 61.4402 94.8872 63.7238C94.8872 66.0075 96.7385 67.8588 99.0222 67.8588Z" fill="#15142C" fill-opacity="0.2"/>
<path opacity="0.5" d="M44.8164 81.716C47.1 81.716 48.9513 79.8647 48.9513 77.581C48.9513 75.2973 47.1 73.446 44.8164 73.446C42.5327 73.446 40.6814 75.2973 40.6814 77.581C40.6814 79.8647 42.5327 81.716 44.8164 81.716Z" fill="#15142C" fill-opacity="0.2"/>
<path opacity="0.5" d="M85.4709 40.1438C87.7545 40.1438 89.6058 38.2925 89.6058 36.0089C89.6058 33.7252 87.7545 31.8739 85.4709 31.8739C83.1872 31.8739 81.3359 33.7252 81.3359 36.0089C81.3359 38.2925 83.1872 40.1438 85.4709 40.1438Z" fill="#15142C" fill-opacity="0.2"/>
<path opacity="0.5" d="M99.0222 40.1438C101.306 40.1438 103.157 38.2925 103.157 36.0089C103.157 33.7252 101.306 31.8739 99.0222 31.8739C96.7385 31.8739 94.8872 33.7252 94.8872 36.0089C94.8872 38.2925 96.7385 40.1438 99.0222 40.1438Z" fill="#15142C" fill-opacity="0.2"/>
<path opacity="0.5" d="M112.574 40.1438C114.857 40.1438 116.709 38.2925 116.709 36.0089C116.709 33.7252 114.857 31.8739 112.574 31.8739C110.29 31.8739 108.439 33.7252 108.439 36.0089C108.439 38.2925 110.29 40.1438 112.574 40.1438Z" fill="#15142C" fill-opacity="0.2"/>
<path opacity="0.5" d="M85.4709 24.2069C87.7545 24.2069 89.6058 22.3556 89.6058 20.072C89.6058 17.7883 87.7545 15.937 85.4709 15.937C83.1872 15.937 81.3359 17.7883 81.3359 20.072C81.3359 22.3556 83.1872 24.2069 85.4709 24.2069Z" fill="#15142C" fill-opacity="0.2"/>
<path opacity="0.5" d="M85.4709 8.26994C87.7545 8.26994 89.6058 6.41865 89.6058 4.13497C89.6058 1.85129 87.7545 0 85.4709 0C83.1872 0 81.3359 1.85129 81.3359 4.13497C81.3359 6.41865 83.1872 8.26994 85.4709 8.26994Z" fill="#15142C" fill-opacity="0.2"/>
<path opacity="0.5" d="M58.3678 67.8588C60.6515 67.8588 62.5027 66.0075 62.5027 63.7238C62.5027 61.4402 60.6515 59.5889 58.3678 59.5889C56.0842 59.5889 54.2329 61.4402 54.2329 63.7238C54.2329 66.0075 56.0842 67.8588 58.3678 67.8588Z" fill="#15142C" fill-opacity="0.2"/>
<path opacity="0.5" d="M112.574 67.8588C114.857 67.8588 116.709 66.0075 116.709 63.7238C116.709 61.4402 114.857 59.5889 112.574 59.5889C110.29 59.5889 108.439 61.4402 108.439 63.7238C108.439 66.0075 110.29 67.8588 112.574 67.8588Z" fill="#15142C" fill-opacity="0.2"/>
<path opacity="0.5" d="M58.3678 81.716C60.6515 81.716 62.5027 79.8647 62.5027 77.581C62.5027 75.2973 60.6515 73.446 58.3678 73.446C56.0842 73.446 54.2329 75.2973 54.2329 77.581C54.2329 79.8647 56.0842 81.716 58.3678 81.716Z" fill="#15142C" fill-opacity="0.2"/>
<path opacity="0.5" d="M85.4709 81.716C87.7545 81.716 89.6058 79.8647 89.6058 77.581C89.6058 75.2973 87.7545 73.446 85.4709 73.446C83.1872 73.446 81.3359 75.2973 81.3359 77.581C81.3359 79.8647 83.1872 81.716 85.4709 81.716Z" fill="#15142C" fill-opacity="0.2"/>
<path opacity="0.5" d="M71.9194 51.8782C73.2447 51.8782 74.3191 50.8038 74.3191 49.4785C74.3191 48.1532 73.2447 47.0789 71.9194 47.0789C70.5941 47.0789 69.5198 48.1532 69.5198 49.4785C69.5198 50.8038 70.5941 51.8782 71.9194 51.8782Z" fill="#15142C" fill-opacity="0.2"/>
<path opacity="0.5" d="M71.9194 67.8588C74.2031 67.8588 76.0544 66.0075 76.0544 63.7238C76.0544 61.4402 74.2031 59.5889 71.9194 59.5889C69.6358 59.5889 67.7845 61.4402 67.7845 63.7238C67.7845 66.0075 69.6358 67.8588 71.9194 67.8588Z" fill="#15142C" fill-opacity="0.2"/>
<path opacity="0.5" d="M126.125 67.8588C128.409 67.8588 130.26 66.0075 130.26 63.7238C130.26 61.4402 128.409 59.5889 126.125 59.5889C123.842 59.5889 121.99 61.4402 121.99 63.7238C121.99 66.0075 123.842 67.8588 126.125 67.8588Z" fill="#15142C" fill-opacity="0.2"/>
<path opacity="0.5" d="M17.7135 9.35976C19.9972 9.35976 21.8484 7.50848 21.8484 5.2248C21.8484 2.94113 19.9972 1.08984 17.7135 1.08984C15.4298 1.08984 13.5786 2.94113 13.5786 5.2248C13.5786 7.50848 15.4298 9.35976 17.7135 9.35976Z" fill="#15142C" fill-opacity="0.2"/>
<path opacity="0.5" d="M31.2649 9.35976C33.5486 9.35976 35.3998 7.50848 35.3998 5.2248C35.3998 2.94113 33.5486 1.08984 31.2649 1.08984C28.9813 1.08984 27.13 2.94113 27.13 5.2248C27.13 7.50848 28.9813 9.35976 31.2649 9.35976Z" fill="#15142C" fill-opacity="0.2"/>
<path opacity="0.5" d="M85.4708 51.8782C86.7961 51.8782 87.8704 50.8038 87.8704 49.4785C87.8704 48.1532 86.7961 47.0789 85.4708 47.0789C84.1455 47.0789 83.0711 48.1532 83.0711 49.4785C83.0711 50.8038 84.1455 51.8782 85.4708 51.8782Z" fill="#15142C" fill-opacity="0.2"/>
</g>
<g opacity="0.5">
<path opacity="0.5" d="M180.323 81.716C182.607 81.716 184.458 79.8647 184.458 77.581C184.458 75.2973 182.607 73.446 180.323 73.446C178.039 73.446 176.188 75.2973 176.188 77.581C176.188 79.8647 178.039 81.716 180.323 81.716Z" fill="#15142C" fill-opacity="0.2"/>
<path opacity="0.5" d="M153.22 81.716C155.503 81.716 157.355 79.8647 157.355 77.581C157.355 75.2973 155.503 73.446 153.22 73.446C150.936 73.446 149.085 75.2973 149.085 77.581C149.085 79.8647 150.936 81.716 153.22 81.716Z" fill="#15142C" fill-opacity="0.2"/>
<path opacity="0.5" d="M220.978 40.1438C223.261 40.1438 225.113 38.2925 225.113 36.0089C225.113 33.7252 223.261 31.8739 220.978 31.8739C218.694 31.8739 216.843 33.7252 216.843 36.0089C216.843 38.2925 218.694 40.1438 220.978 40.1438Z" fill="#15142C" fill-opacity="0.2"/>
<path opacity="0.5" d="M193.875 81.716C196.158 81.716 198.009 79.8647 198.009 77.581C198.009 75.2973 196.158 73.446 193.875 73.446C191.591 73.446 189.74 75.2973 189.74 77.581C189.74 79.8647 191.591 81.716 193.875 81.716Z" fill="#15142C" fill-opacity="0.2"/>
<path opacity="0.5" d="M166.772 81.716C169.055 81.716 170.907 79.8647 170.907 77.581C170.907 75.2973 169.055 73.446 166.772 73.446C164.488 73.446 162.637 75.2973 162.637 77.581C162.637 79.8647 164.488 81.716 166.772 81.716Z" fill="#15142C" fill-opacity="0.2"/>
<path opacity="0.5" d="M234.529 40.1438C236.813 40.1438 238.664 38.2925 238.664 36.0089C238.664 33.7252 236.813 31.8739 234.529 31.8739C232.245 31.8739 230.394 33.7252 230.394 36.0089C230.394 38.2925 232.245 40.1438 234.529 40.1438Z" fill="#15142C" fill-opacity="0.2"/>
<path opacity="0.5" d="M261.632 51.8782C262.957 51.8782 264.032 50.8038 264.032 49.4785C264.032 48.1532 262.957 47.0789 261.632 47.0789C260.307 47.0789 259.233 48.1532 259.233 49.4785C259.233 50.8038 260.307 51.8782 261.632 51.8782Z" fill="#15142C" fill-opacity="0.2"/>
<path opacity="0.5" d="M261.632 67.8588C263.916 67.8588 265.767 66.0075 265.767 63.7238C265.767 61.4402 263.916 59.5889 261.632 59.5889C259.348 59.5889 257.497 61.4402 257.497 63.7238C257.497 66.0075 259.348 67.8588 261.632 67.8588Z" fill="#15142C" fill-opacity="0.2"/>
<path opacity="0.5" d="M207.426 81.716C209.71 81.716 211.561 79.8647 211.561 77.581C211.561 75.2973 209.71 73.446 207.426 73.446C205.143 73.446 203.291 75.2973 203.291 77.581C203.291 79.8647 205.143 81.716 207.426 81.716Z" fill="#15142C" fill-opacity="0.2"/>
<path opacity="0.5" d="M248.081 40.1438C250.364 40.1438 252.216 38.2925 252.216 36.0089C252.216 33.7252 250.364 31.8739 248.081 31.8739C245.797 31.8739 243.945 33.7252 243.945 36.0089C243.945 38.2925 245.797 40.1438 248.081 40.1438Z" fill="#15142C" fill-opacity="0.2"/>
<path opacity="0.5" d="M248.081 24.2069C250.364 24.2069 252.216 22.3556 252.216 20.072C252.216 17.7883 250.364 15.937 248.081 15.937C245.797 15.937 243.945 17.7883 243.945 20.072C243.945 22.3556 245.797 24.2069 248.081 24.2069Z" fill="#15142C" fill-opacity="0.2"/>
<path opacity="0.5" d="M303.065 24.2069C305.349 24.2069 307.2 22.3556 307.2 20.072C307.2 17.7883 305.349 15.937 303.065 15.937C300.781 15.937 298.93 17.7883 298.93 20.072C298.93 22.3556 300.781 24.2069 303.065 24.2069Z" fill="#15142C" fill-opacity="0.2"/>
<path opacity="0.5" d="M248.081 8.26994C250.364 8.26994 252.216 6.41865 252.216 4.13497C252.216 1.85129 250.364 0 248.081 0C245.797 0 243.945 1.85129 243.945 4.13497C243.945 6.41865 245.797 8.26994 248.081 8.26994Z" fill="#15142C" fill-opacity="0.2"/>
<path opacity="0.5" d="M220.978 67.8588C223.261 67.8588 225.113 66.0075 225.113 63.7238C225.113 61.4402 223.261 59.5889 220.978 59.5889C218.694 59.5889 216.843 61.4402 216.843 63.7238C216.843 66.0075 218.694 67.8588 220.978 67.8588Z" fill="#15142C" fill-opacity="0.2"/>
<path opacity="0.5" d="M180.323 67.8588C182.607 67.8588 184.458 66.0075 184.458 63.7238C184.458 61.4402 182.607 59.5889 180.323 59.5889C178.039 59.5889 176.188 61.4402 176.188 63.7238C176.188 66.0075 178.039 67.8588 180.323 67.8588Z" fill="#15142C" fill-opacity="0.2"/>
<path opacity="0.5" d="M275.182 67.8588C277.466 67.8588 279.317 66.0075 279.317 63.7238C279.317 61.4402 277.466 59.5889 275.182 59.5889C272.899 59.5889 271.047 61.4402 271.047 63.7238C271.047 66.0075 272.899 67.8588 275.182 67.8588Z" fill="#15142C" fill-opacity="0.2"/>
<path opacity="0.5" d="M220.978 81.716C223.261 81.716 225.113 79.8647 225.113 77.581C225.113 75.2973 223.261 73.446 220.978 73.446C218.694 73.446 216.843 75.2973 216.843 77.581C216.843 79.8647 218.694 81.716 220.978 81.716Z" fill="#15142C" fill-opacity="0.2"/>
<path opacity="0.5" d="M261.632 40.1438C263.916 40.1438 265.767 38.2925 265.767 36.0089C265.767 33.7252 263.916 31.8739 261.632 31.8739C259.348 31.8739 257.497 33.7252 257.497 36.0089C257.497 38.2925 259.348 40.1438 261.632 40.1438Z" fill="#15142C" fill-opacity="0.2"/>
<path opacity="0.5" d="M234.529 51.8782C235.854 51.8782 236.929 50.8038 236.929 49.4785C236.929 48.1532 235.854 47.0789 234.529 47.0789C233.204 47.0789 232.129 48.1532 232.129 49.4785C232.129 50.8038 233.204 51.8782 234.529 51.8782Z" fill="#15142C" fill-opacity="0.2"/>
<path opacity="0.5" d="M275.183 51.8782C276.508 51.8782 277.582 50.8038 277.582 49.4785C277.582 48.1532 276.508 47.0789 275.183 47.0789C273.857 47.0789 272.783 48.1532 272.783 49.4785C272.783 50.8038 273.857 51.8782 275.183 51.8782Z" fill="#15142C" fill-opacity="0.2"/>
<path opacity="0.5" d="M315.838 51.8782C317.163 51.8782 318.237 50.8038 318.237 49.4785C318.237 48.1532 317.163 47.0789 315.838 47.0789C314.512 47.0789 313.438 48.1532 313.438 49.4785C313.438 50.8038 314.512 51.8782 315.838 51.8782Z" fill="#15142C" fill-opacity="0.2"/>
<path opacity="0.5" d="M234.529 67.8588C236.813 67.8588 238.664 66.0075 238.664 63.7238C238.664 61.4402 236.813 59.5889 234.529 59.5889C232.245 59.5889 230.394 61.4402 230.394 63.7238C230.394 66.0075 232.245 67.8588 234.529 67.8588Z" fill="#15142C" fill-opacity="0.2"/>
<path opacity="0.5" d="M288.735 67.8588C291.019 67.8588 292.87 66.0075 292.87 63.7238C292.87 61.4402 291.019 59.5889 288.735 59.5889C286.451 59.5889 284.6 61.4402 284.6 63.7238C284.6 66.0075 286.451 67.8588 288.735 67.8588Z" fill="#15142C" fill-opacity="0.2"/>
<path opacity="0.5" d="M234.529 81.716C236.813 81.716 238.664 79.8647 238.664 77.581C238.664 75.2973 236.813 73.446 234.529 73.446C232.245 73.446 230.394 75.2973 230.394 77.581C230.394 79.8647 232.245 81.716 234.529 81.716Z" fill="#15142C" fill-opacity="0.2"/>
<path opacity="0.5" d="M275.182 40.1438C277.466 40.1438 279.317 38.2925 279.317 36.0089C279.317 33.7252 277.466 31.8739 275.182 31.8739C272.899 31.8739 271.047 33.7252 271.047 36.0089C271.047 38.2925 272.899 40.1438 275.182 40.1438Z" fill="#15142C" fill-opacity="0.2"/>
<path opacity="0.5" d="M288.735 40.1438C291.019 40.1438 292.87 38.2925 292.87 36.0089C292.87 33.7252 291.019 31.8739 288.735 31.8739C286.451 31.8739 284.6 33.7252 284.6 36.0089C284.6 38.2925 286.451 40.1438 288.735 40.1438Z" fill="#15142C" fill-opacity="0.2"/>
<path opacity="0.5" d="M288.735 9.35976C291.019 9.35976 292.87 7.50848 292.87 5.2248C292.87 2.94113 291.019 1.08984 288.735 1.08984C286.451 1.08984 284.6 2.94113 284.6 5.2248C284.6 7.50848 286.451 9.35976 288.735 9.35976Z" fill="#15142C" fill-opacity="0.2"/>
<path opacity="0.5" d="M302.288 9.35976C304.572 9.35976 306.423 7.50848 306.423 5.2248C306.423 2.94113 304.572 1.08984 302.288 1.08984C300.004 1.08984 298.153 2.94113 298.153 5.2248C298.153 7.50848 300.004 9.35976 302.288 9.35976Z" fill="#15142C" fill-opacity="0.2"/>
<path opacity="0.5" d="M248.08 51.8782C249.405 51.8782 250.48 50.8038 250.48 49.4785C250.48 48.1532 249.405 47.0789 248.08 47.0789C246.755 47.0789 245.681 48.1532 245.681 49.4785C245.681 50.8038 246.755 51.8782 248.08 51.8782Z" fill="#15142C" fill-opacity="0.2"/>
<path opacity="0.5" d="M288.735 51.8782C290.06 51.8782 291.135 50.8038 291.135 49.4785C291.135 48.1532 290.06 47.0789 288.735 47.0789C287.409 47.0789 286.335 48.1532 286.335 49.4785C286.335 50.8038 287.409 51.8782 288.735 51.8782Z" fill="#15142C" fill-opacity="0.2"/>
<path opacity="0.5" d="M302.288 40.1438C304.572 40.1438 306.423 38.2925 306.423 36.0089C306.423 33.7252 304.572 31.8739 302.288 31.8739C300.004 31.8739 298.153 33.7252 298.153 36.0089C298.153 38.2925 300.004 40.1438 302.288 40.1438Z" fill="#15142C" fill-opacity="0.2"/>
<path opacity="0.5" d="M315.838 40.1438C318.121 40.1438 319.973 38.2925 319.973 36.0089C319.973 33.7252 318.121 31.8739 315.838 31.8739C313.554 31.8739 311.703 33.7252 311.703 36.0089C311.703 38.2925 313.554 40.1438 315.838 40.1438Z" fill="#15142C" fill-opacity="0.2"/>
</g>
</g>
<defs>
<filter id="filter0_i" x="0.0270996" y="0" width="319.945" height="85.716" filterUnits="userSpaceOnUse" color-interpolation-filters="sRGB">
<feFlood flood-opacity="0" result="BackgroundImageFix"/>
<feBlend mode="normal" in="SourceGraphic" in2="BackgroundImageFix" result="shape"/>
<feColorMatrix in="SourceAlpha" type="matrix" values="0 0 0 0 0 0 0 0 0 0 0 0 0 0 0 0 0 0 127 0" result="hardAlpha"/>
<feOffset dy="4"/>
<feGaussianBlur stdDeviation="2"/>
<feComposite in2="hardAlpha" operator="arithmetic" k2="-1" k3="1"/>
<feColorMatrix type="matrix" values="0 0 0 0 0 0 0 0 0 0 0 0 0 0 0 0 0 0 0.15 0"/>
<feBlend mode="normal" in2="shape" result="effect1_innerShadow"/>
</filter>
</defs>
</svg>
